<svg width="760" height="620" viewBox="0 0 760 620" xmlns="http://www.w3.org/2000/svg">
  <rect x="20" y="20" width="720" height="580" fill="#F8FAFC" stroke="#94A3B8" stroke-width="2"/>

  <rect x="650" y="28" width="72" height="24" fill="#E2E8F0" stroke="#94A3B8"/>
  <text x="686" y="44" text-anchor="middle" font-size="12" fill="#0F172A">关闭</text>

  <text x="360" y="58" text-anchor="middle" font-size="24" font-weight="700" fill="#0F172A">调试日志</text>
  <text x="360" y="84" text-anchor="middle" font-size="13" fill="#475569">仅通过 /img debug ... 打开</text>

  <text x="44" y="126" font-size="15" font-weight="700" fill="#0F172A">日志分段</text>
  <rect x="40" y="138" width="640" height="116" fill="#FFFBEB" stroke="#F59E0B" stroke-dasharray="5 4"/>
  <text x="56" y="164" font-size="13" fill="#0F172A">[ ] Bulk Scan Queue Debug</text>
  <text x="266" y="164" font-size="13" fill="#0F172A">[ ] Current Loot Debug</text>
  <text x="486" y="164" font-size="13" fill="#0F172A">[ ] Runtime Error Debug</text>
  <text x="56" y="192" font-size="13" fill="#0F172A">[ ] Dashboard Snapshot Debug</text>
  <text x="266" y="192" font-size="13" fill="#0F172A">[ ] Loot API Raw Debug</text>
  <text x="486" y="192" font-size="13" fill="#0F172A">[ ] Startup Lifecycle Debug</text>
  <text x="56" y="220" font-size="13" fill="#0F172A">[ ] Loot Panel Selection Debug</text>
  <text x="266" y="220" font-size="13" fill="#0F172A">[ ] Minimap Tooltip Debug</text>
  <text x="486" y="220" font-size="13" fill="#0F172A">[ ] 其他调试段...</text>
  <text x="56" y="244" font-size="12" fill="#92400E">当前实现是 3 列复选框网格，数量由 GetDebugLogSectionLayout() 决定</text>

  <text x="44" y="284" font-size="15" font-weight="700" fill="#0F172A">Debug Output</text>
  <rect x="604" y="266" width="116" height="28" fill="#DBEAFE" stroke="#60A5FA"/>
  <text x="662" y="284" text-anchor="middle" font-size="12" fill="#0F172A">Collect Logs</text>

  <rect x="40" y="304" width="672" height="238" fill="#DCFCE7" stroke="#4ADE80" stroke-width="1.5"/>
  <rect x="54" y="320" width="630" height="204" fill="#FFFFFF" stroke="#94A3B8" stroke-dasharray="4 3"/>
  <text x="68" y="346" font-size="12" fill="#334155">Tip: click "Collect Logs" to auto-select the text ...</text>
  <text x="68" y="372" font-size="12" fill="#334155">== Startup Lifecycle Debug ==</text>
  <text x="68" y="392" font-size="12" fill="#334155">[08:00:01] initialize_defaults_done | event=ADDON_LOADED ...</text>
  <text x="68" y="418" font-size="12" fill="#334155">== Runtime Error Debug ==</text>
  <text x="68" y="438" font-size="12" fill="#334155">[1] at=08:01:12 | repeats=1</text>
  <text x="68" y="458" font-size="12" fill="#334155">message = ...</text>
  <text x="68" y="478" font-size="12" fill="#334155">stack = ...</text>
  <text x="68" y="506" font-size="12" fill="#64748B">当前主体是单个可滚动多行文本框，不是结构化列表视图</text>

  <rect x="714" y="304" width="10" height="238" fill="#E2E8F0" stroke="#94A3B8"/>
  <rect x="714" y="344" width="10" height="68" fill="#CBD5E1" stroke="#64748B"/>

  <text x="360" y="576" text-anchor="middle" font-size="12" fill="#64748B">/img debug · v当前版本</text>
</svg>
